/* XPM */
static char *_154_5404cc785dca696b91914019117c69c58ef262fa9a1d5ddb1209e4fbec0acaca[] = {
/* columns rows colors chars-per-pixel */
"16 16 165 2 ",
"   c #6E2E6D",
".  c #6F2F6D",
"X  c #6D2E6E",
"o  c #6D2F6E",
"O  c #6F2E6E",
"+  c #6E2F6E",
"@  c #772E67",
"#  c #7E2C62",
"$  c #7B2D65",
"%  c #7B2D67",
"&  c #792E67",
"*  c #7C2C64",
"=  c #7D2C64",
"-  c #7C2D65",
";  c #7F2C64",
":  c #7E2D64",
">  c #7E2C65",
",  c #7E2D65",
"<  c #7D2C66",
"1  c #7C2D66",
"2  c #722E6B",
"3  c #762D69",
"4  c #752E68",
"5  c #752E69",
"6  c #742E6A",
"7  c #742E6B",
"8  c #752F6B",
"9  c #762E6A",
"0  c #772E6A",
"q  c #702E6C",
"w  c #712E6C",
"e  c #702F6C",
"r  c #712F6C",
"t  c #702F6D",
"y  c #722E6C",
"u  c #732E6C",
"i  c #742F6C",
"p  c #792E69",
"a  c #73316D",
"s  c #72306E",
"d  c #7A336A",
"f  c #7E3269",
"g  c #7E336A",
"h  c #872D5B",
"j  c #802C5F",
"k  c #812D5F",
"l  c #832D5E",
"z  c #822C5F",
"x  c #832C5F",
"c  c #832D5F",
"v  c #852D5C",
"b  c #872C5C",
"n  c #842C5E",
"m  c #852C5E",
"M  c #842D5E",
"N  c #842C5F",
"B  c #862C5E",
"V  c #882D5B",
"C  c #812C60",
"Z  c #802C61",
"A  c #822C61",
"S  c #832C61",
"D  c #802D62",
"F  c #802D63",
"G  c #822C63",
"H  c #802C64",
"J  c #873164",
"K  c #80396F",
"L  c #803C72",
"P  c #834276",
"I  c #8E4A77",
"U  c #84477A",
"Y  c #8A4F7F",
"T  c #8E4E7E",
"R  c #934B76",
"E  c #984870",
"W  c #964E78",
"Q  c #914F7C",
"!  c #835184",
"~  c #9B648B",
"^  c #9E6B91",
"/  c #9F7297",
"(  c #9A7199",
")  c #9E7398",
"_  c #9C749B",
"`  c #A46486",
"'  c #AA6987",
"]  c #A06B8F",
"[  c #A46B8C",
"{  c #A46C8F",
"}  c #A66C8E",
"|  c #A86888",
" . c #AA6F8F",
".. c #AC708C",
"X. c #AC718C",
"o. c #A36F93",
"O. c #A46E92",
"+. c #AA6F91",
"@. c #A27397",
"#. c #A3799E",
"$. c #A2799F",
"%. c #A981A2",
"&. c #AB83A3",
"*. c #BD8EA5",
"=. c #B68EA8",
"-. c #BF90A3",
";. c #BD90A5",
":. c #B393AF",
">. c #B591AC",
",. c #BC90A9",
"<. c #B799B4",
"1. c #B999B2",
"2. c #B6B4B0",
"3. c #B8B6B2",
"4. c #BABAB4",
"5. c #BCBCB4",
"6. c #C39FB2",
"7. c #C4A4B7",
"8. c #C6ABBE",
"9. c #D3BAC6",
"0. c #CCCAC6",
"q. c #D7C3CD",
"w. c #D9C3CB",
"e. c #DBC2CB",
"r. c #DAC3CB",
"t. c #D8C3CC",
"y. c #D9C3CC",
"u. c #DBC4CC",
"i. c #DAC4CD",
"p. c #D0D0CA",
"a. c #D2D0CA",
"s. c #D2D2CA",
"d. c #E4D0D4",
"f. c #E5D2D4",
"g. c #E4D3D6",
"h. c #E1D3D8",
"j. c #E1D6DB",
"k. c #E4D4D8",
"l. c #E5DBDF",
"z. c #E6DADE",
"x. c #EAE0E1",
"c. c #ECE1E1",
"v. c #ECE2E3",
"b. c #EBEAE3",
"n. c #EFE8E7",
"m. c #F4EBE8",
"M. c #F3ECE9",
"N. c #F3ECEA",
"B. c #F4ECE8",
"V. c #F4EFEB",
"C. c #F4EEEC",
"Z. c #F1F1EA",
"A. c #F2F1EA",
"S. c #F5F0EC",
"D. c #F4F0ED",
"F. c #F8F4EF",
"G. c #FCFCF3",
"H. c #FCFAF4",
"J. c #FDFBF4",
"K. c #FCFCF4",
"L. c #FDFDF4",
"P. c #FEFDF5",
"I. c #FEFEF5",
"U. c #FFFFF7",
"Y. c None",
/* pixels */
"Y.Y.Y.Y.Y.Y.0.b.b.0.Y.Y.Y.Y.Y.Y.",
"Y.Y.Y.Y.G.l.<.$.#.1.z.K.Y.Y.Y.Y.",
"Y.Y.2.D._ o O s a i 8 @.S.3.Y.Y.",
"Y.Y.D.! X . r %.&.9 0 p T V.Y.Y.",
"Y.L.(   t w u 8.C.L & % % O.L.Y.",
"Y.j.+ e y 7 U P F.7.% 1 < , k.Y.",
"p.:.q 2 7 Y n.K =.J.Q > : H ,.s.",
"Z.) 2 6 5 q.v.g f c.i.; H G +.A.",
"Z./ 6 3 ^ U.o.- = { U.} A S  .A.",
"a.>.4 d x.H.9.9.6.F u.c.J N *.s.",
"Y.h.@ ~ t.y.w.r.r.R W e.` m d.Y.",
"Y.I.] $ * # D C z x n m B | I.Y.",
"Y.Y.N.I # Z j c M m B b E m.Y.Y.",
"Y.Y.4.M.[ k l M v h V ' B.5.Y.Y.",
"Y.Y.Y.Y.P.g.;.X...-.f.I.Y.Y.Y.Y.",
"Y.Y.Y.Y.Y.Y.a.Z.Z.s.Y.Y.Y.Y.Y.Y."
};
