/* XPM */
static char *_7921_aa585cd1f24480b5b70f875067cb7a058faad2760119650d8049ccd749086db5[] = {
/* columns rows colors chars-per-pixel */
"64 64 130 2 ",
"   c #7F2C5F",
".  c #6E2E6E",
"X  c #772E67",
"o  c #7C2C65",
"O  c #732E6B",
"+  c #792E69",
"@  c #6E326F",
"#  c #7C3166",
"$  c #75336C",
"%  c #7A346B",
"&  c #7E396C",
"*  c #6D2F70",
"=  c #6F3773",
"-  c #6F3871",
";  c #723A73",
":  c #7C3C71",
">  c #744077",
",  c #7E4477",
"<  c #79467B",
"1  c #7B497D",
"2  c #842C5E",
"3  c #882C5B",
"4  c #87305F",
"5  c #89325D",
"6  c #822C61",
"7  c #843463",
"8  c #8C3661",
"9  c #8A3966",
"0  c #823668",
"q  c #803B6D",
"w  c #8C3F6A",
"e  c #85406E",
"r  c #8E456F",
"t  c #994E6F",
"y  c #824273",
"u  c #8A4671",
"i  c #844778",
"p  c #824B7A",
"a  c #8B4E7A",
"s  c #984C71",
"d  c #8C527C",
"f  c #925177",
"g  c #9A5575",
"h  c #96547A",
"j  c #9A577C",
"k  c #9D5A7C",
"l  c #A3617D",
"z  c #7D4E80",
"x  c #864F80",
"c  c #895482",
"v  c #8C5A84",
"b  c #8F5F88",
"n  c #935D83",
"m  c #9A5F83",
"M  c #8E638D",
"N  c #946087",
"B  c #9F6587",
"V  c #94638A",
"C  c #9B6A8D",
"Z  c #946D94",
"A  c #996F92",
"S  c #9D7394",
"D  c #9E799C",
"F  c #A26582",
"G  c #A56B86",
"H  c #AA6F87",
"J  c #A36C8B",
"K  c #A6738E",
"L  c #A8738E",
"P  c #A57493",
"I  c #AC7C96",
"U  c #A07798",
"Y  c #A27C9F",
"T  c #A97E9A",
"R  c #B17F98",
"E  c #A27CA0",
"W  c #A9839F",
"Q  c #B58497",
"!  c #B4859B",
"~  c #B8879A",
"^  c #A583A2",
"/  c #AB87A2",
"(  c #AC8AA5",
")  c #AC8DA9",
"_  c #B28CA2",
"`  c #AF94AD",
"'  c #BB94A6",
"]  c #B393AA",
"[  c #B993A8",
"{  c #BA9AAD",
"}  c #BD9FB1",
"|  c #BDA3B4",
" . c #BDA6B9",
".. c #C39EAD",
"X. c #C6A2AE",
"o. c #C8A4AF",
"O. c #C6A4B1",
"+. c #C7A9B7",
"@. c #C4ACBB",
"#. c #C3B0BF",
"$. c #CFB5BF",
"%. c #D3B6BE",
"&. c #CCB6C1",
"*. c #CDB9C4",
"=. c #D2BDC5",
"-. c #D3BFC9",
";. c #D4C3CB",
":. c #DAC5CA",
">. c #DCC9CD",
",. c #D4C6D0",
"<. c #DBCDD2",
"1. c #DED2D6",
"2. c #DFD5D9",
"3. c #E0CCCE",
"4. c #E3D4D6",
"5. c #E3D7D9",
"6. c #E6DCDC",
"7. c #E9DEDD",
"8. c #E7DEE0",
"9. c #ECE4E3",
"0. c #EEE9E7",
"q. c #F1EAE6",
"w. c #F2EDEA",
"e. c #F6F2EE",
"r. c #F8F4EF",
"t. c #F7F6F1",
"y. c #F9F6F1",
"u. c #FFFFF7",
"i. c #FFFFF8",
"p. c None",
/* pixels */
"p.p.p.p.p.p.p.p.p.p.p.p.p.p.p.p.p.p.p.p.p.p.p.p.p.p.p.p.p.p.p.p.p.p.p.p.p.p.p.p.p.p.p.p.p.p.p.p.p.p.p.p.p.p.p.p.p.p.p.p.p.p.p.p.",
"p.p.p.p.p.p.p.p.p.p.p.p.p.p.p.p.p.p.p.p.p.p.p.p.p.u.u.u.u.u.u.u.i.i.i.u.u.u.u.p.p.p.p.p.p.p.p.p.p.p.p.p.p.p.p.p.p.p.p.p.p.p.p.p.",
"p.p.p.p.p.p.p.p.p.p.p.p.p.p.p.p.p.p.p.p.p.p.u.u.u.u.u.u.u.u.u.u.u.u.i.u.u.u.u.u.u.u.p.p.p.p.p.p.p.p.p.p.p.p.p.p.p.p.p.p.p.p.p.p.",
"p.p.p.p.p.p.p.p.p.p.p.p.p.p.p.p.p.p.p.u.u.u.u.u.u.u.u.u.u.u.u.u.u.u.u.u.u.u.u.u.u.u.i.u.u.p.p.p.p.p.p.p.p.p.p.p.p.p.p.p.p.p.p.p.",
"p.p.p.p.p.p.p.p.p.p.p.p.p.p.p.p.p.u.u.u.u.u.u.u.u.u.u.u.u.u.u.u.u.u.i.i.u.u.u.u.i.i.i.u.u.u.i.p.p.p.p.p.p.p.p.p.p.p.p.p.p.p.p.p.",
"p.p.p.p.p.p.p.p.p.p.p.p.p.p.p.y.u.u.u.u.u.u.u.u.u.u.0.,. .) E Y D E )  .,.0.u.u.i.i.i.u.u.i.i.i.y.p.p.p.p.p.p.p.p.p.p.p.p.p.p.p.",
"p.p.p.p.p.p.p.p.p.p.p.p.p.p.u.u.u.u.u.u.u.u.t.,.^ z @ * O . . . . O O O . $ 1 ^ ,.y.i.i.u.u.i.i.u.u.p.p.p.p.p.p.p.p.p.p.p.p.p.p.",
"p.p.p.p.p.p.p.p.p.p.p.p.p.u.u.u.u.u.u.u.0.` > * * * . O * . . O * O . O . O O O O : ] 9.i.u.i.i.u.u.u.p.p.p.p.p.p.p.p.p.p.p.p.p.",
"p.p.p.p.p.p.p.p.p.p.p.y.u.u.u.u.u.u.w.^ = = . * . * * O O . O * O . O O O O * $ * * + q E e.y.i.u.u.u.u.u.p.p.p.p.p.p.p.p.p.p.p.",
"p.p.p.p.p.p.p.p.p.p.u.u.u.u.u.u.u. .> = * * . . . O . * * . O O . O . O O O + O + + + * O : @.y.u.u.u.u.u.u.p.p.p.p.p.p.p.p.p.p.",
"p.p.p.p.p.p.p.p.p.u.u.u.u.u.u.w.M * * * * . . . . . . O O . O * O . O O $ O O O * + O + O + + C 0.i.u.u.u.u.u.p.p.p.p.p.p.p.p.p.",
"p.p.p.p.p.p.p.p.u.u.u.u.u.u.2.1 * * * . * . . . . . . O . O O x c O . O O O O $ + O O + + + O + i 1.u.u.u.u.u.u.p.p.p.p.p.p.p.p.",
"p.p.p.p.p.p.p.p.u.u.u.u.u.,.= = * . . . O . * O O O O O O O * ,.<.O $ O O O O + + + * 0 + + O + + & -.u.u.u.u.u.p.p.p.p.p.p.p.p.",
"p.p.p.p.p.p.p.u.u.u.u.u.,.= * . * . . . * . * O . . . O O O A i.u.U O O + O O + O + + $ + + + + + + % -.u.u.u.u.u.p.p.p.p.p.p.p.",
"p.p.p.p.p.p.u.u.u.u.u.1.- * . . . . . . O * . O . . . O O = 8.i.u.9.$ O O O + + + + + + O + O 0 o + + 0 <.u.u.u.u.u.p.p.p.p.p.p.",
"p.p.p.p.p.u.i.i.u.u.0.> * * * . * O . * . O O . O O . O O ( u.i.i.u.] O + O + O $ + + + + + 6 O + + o + y 9.u.u.u.u.u.p.p.p.p.p.",
"p.p.p.p.p.u.u.u.u.t.M * * * . . . . O . O X . . O O O O : e.i.u.i.i.t.q O + O + O o o o o + + + o + o o 6 M y.i.i.i.i.p.p.p.p.p.",
"p.p.p.p.u.u.u.u.t.| = * * * . . . . . . . . O O O O O O * ,.u.i.i.i.i.&.+ + + + O O o + + + o + o + o o + + } y.i.i.i.i.p.p.p.p.",
"p.p.p.p.u.u.u.u.9.- . . . @ . . . . . . . O O . O O O O O n i.i.i.i.i.i.b + + + o O + + + + + 6 6 + o o 6 + 6 8.i.i.i.i.p.p.p.p.",
"p.p.p.u.u.u.u.u.D . . . . . . . X . X . O O O O O O O O O O &.y.u.i.i.i.2.+ + + o o o + + o o + + + o + + 6 6 S i.i.i.y.u.p.p.p.",
"p.p.p.u.u.u.i.8.@ . . . . . . . . . . O O . O O O O O O X O y e.i.u.i.u.i.E + + o o + o 6 + + 6 + 6 6 + 6 + 6 + 5.u.u.u.u.p.p.p.",
"p.p.p.u.u.u.u.^ . . . . . . X O O . O O O O O O O O + O O + O ( i.u.u.u.i.0.0 o o + + + + + o + 6 + + 6 + 6 + 6 I i.u.u.u.p.p.p.",
"p.p.u.u.u.u.e.= . . . . . . O . . O O O O O X O O U % O + + X % 8.u.u.i.i.i.[ 6 + + + 6 6 + + 6 + 6 + + 6 + 6 6 0 w.u.u.u.u.p.p.",
"p.p.u.u.u.u.&.* O . . . . X . O O O O O O O O X i y.( + + O X + A u.u.u.i.y.y.i + 6 + + + 6 + o 6 + 6 6 6 6 6 + o +.u.u.u.u.p.p.",
"p.p.u.u.u.u.Z . . . . O . O O . O O O O X O X O *.u.w.q + X + + o -.u.u.u.u.u.;.+ o 6 o 6 + 6 + 6 + + + 6 + + 6 6 B i.u.u.u.p.p.",
"p.u.u.u.u.y.; $ . O . . . O O O O O O O O X O V u.u.i.@.+ X X + o a y.u.u.u.u.u.C + o + + 6 + 6 + 6 6 6 6 6 6 6 6 0 t.i.u.u.u.p.",
"p.u.u.u.u.2.. . . O O . . O O O O O O X O O O 5.u.u.i.u.c + o o X o } u.u.u.u.u.8.6 6 + 6 + 6 6 6 6 + 6 0 6 6 6 6 6 <.i.u.u.u.p.",
"p.u.u.u.u. .O . . . O O O . O O O X O O + + ^ u.u.u.u.u.-.o + + o + : q.u.u.u.u.i.R + + + 6 6 + 6 + 6 6 6 + 6 6 6 + O.i.u.u.u.p.",
"p.u.u.u.u.) . O O O O . O O O O O O O X O : 0.i.u.u.u.u./ + + + o o + T u.u.u.u.i.w.q 6 6 + + 6 6 + 6 6 6 6 0 6 6 6 R u.u.u.u.p.",
"p.u.u.u.u.S O . O . O O O X O X O X O X O O.u.u.u.u.u.6.% o o o + o o + 4.u.u.u.i.i.+.6 6 6 6 6 6 6 6 6 6 6 6 6 6 6 J u.u.u.u.p.",
"p.u.u.u.u.M * . O O O . O . X O O O X X d u.u.u.u.i.u.C o + o o o o o o n u.i.u.i.i.y.c + 6 6 + 6 6 + 6 6 6 6 6 6 6 m u.u.u.i.p.",
"p.u.u.u.u.v O O . O O X O X O X X X X + ;.u.u.u.u.i.-.+ + o + o o o o o o *.u.u.i.i.y.,.6 + 6 + 6 6 6 6 6 6 6 6 6 6 h i.u.u.i.p.",
"p.u.u.u.u.v . O O O O O X O O X X X + A u.u.u.u.u.t.a X X o o o o o o o o u e.u.u.u.i.u.P 6 6 6 6 6 6 6 6 3 6 6 6 3 w i.i.i.i.p.",
"p.u.u.u.u.v X O O O O O O O X X X + % 8.u.u.u.u.u.} o o o o o o o o o o 6 6 [ u.u.u.u.u.9.0 6 6 6 6 6 6 6 6 6 6 6 6 n i.i.i.i.p.",
"p.u.u.u.u.S O O O O O X X X X X X + ) u.u.i.u.u.0.: o o o o o o o o o o 6 o 0 8.u.u.u.u.i.[ 6 6 6 6 6 6 6 3 6 6 6 6 B i.u.i.i.p.",
"p.u.u.u.u./ O O O O X O X O X X X y t.u.u.u.u.u.T o X o o o o o o o 6 o + 6 6 L u.i.u.u.i.y.u 6 3 6 6 6 6 6 3 3 6 3 R y.i.i.i.p.",
"p.u.u.u.u.| O O O O O X X X X $ X @.u.u.u.u.u.1.+ o o o o o o o o o 6 o 6 o 6 6 >.u.u.i.u.u.&.6 6 6 6 6 6 6 6 6 6 6 ..u.u.i.u.p.",
"p.u.u.u.u.<.O . X X X X X X X # n u.u.u.i.u.i.6.=.=.=.=.=.=.=.=.=.=._ o 6 o o 6 j y.u.u.u.u.u.m 3 6 3 6 3 6 2 2 3 6 :.u.u.u.u.p.",
"p.u.u.u.u.e.O O O X X X X X X X <.u.u.u.u.u.u.u.u.u.u.u.u.u.u.u.u.u.y.h + 6 6 6 6 +.u.u.u.u.u.4.6 6 6 6 6 3 6 2 6 8 w.i.u.u.u.p.",
"p.p.u.u.u.u.n X X O X X X X X P u.u.u.u.u.u.u.u.u.u.u.u.u.u.u.u.u.u.i.:.6 6 o 6 6 w w.u.u.u.u.u.R 6 2 2 3 6 3 3 3 k u.u.u.u.p.p.",
"p.p.u.u.u.u.| X X X X X + o & 9.u.u.u.u.u.u.u.u.u.u.u.u.u.u.u.u.u.u.u.u.J 6 6 6 6 6 ! u.i.y.u.u.q.8 6 3 3 2 6 3 6 ..u.u.u.u.p.p.",
"p.p.u.u.u.u.0.% X X X X X X { u.u.u.u.u.u.u.u.u.u.u.u.u.u.u.u.u.u.u.u.u.8.7 6 2 6 2 7 6.i.i.u.u.i...6 6 6 6 3 6 3 9.u.u.u.u.p.p.",
"p.p.p.u.u.u.u.S X X X X o & 2.7.8.7.8.7.7.7.6.7.7.7.6.7.7.7.7.7.7.7.7.7.8.K 6 6 6 2 6 F 7.7.7.7.8.4.9 6 3 6 3 3 G u.u.u.i.p.p.p.",
"p.p.p.u.u.u.u.<.X o X o + o # X + o o o o o o o 6 o o   o     o   6 6 6 2 6 2 2 6 6 6 2 3 6 2 2 3 6 3 3 6 3 6 2 3.u.u.u.u.p.p.p.",
"p.p.p.u.u.u.u.u.C X o + o o X o   o o o     o o 6 o 2 o     o 6 2 6 6 6 2 2 2 6 3 2 2 6 3 2 6 2 2 6 3 6 3 6 3 F u.u.u.u.u.p.p.p.",
"p.p.p.p.u.u.u.u.5.# + o X X   X o X   o o o     o 2 o 2 6 o 2 6 2 6   2 2 6 2   2 2 2 2 2 6 3 6 6 3 3 3 6 3 8 3.u.u.u.u.p.p.p.p.",
"p.p.p.p.u.u.u.u.u.( o o o o o o X     o o o o     o 2 o 2 o 2   6 6 2   2 6 2 2 2 2 2 2 2 2 2 3 3 3 6 3 6 3 ! u.u.u.u.u.p.p.p.p.",
"p.p.p.p.p.u.u.u.u.r.a X o o o o o o o o       o o 2 o o 2 2 2 o 2   2 2 2 2 2 2 6 2 2 2 2 2 2 2 3 6 3 3 3 s y.i.u.u.u.p.p.p.p.p.",
"p.p.p.p.p.u.u.u.u.u.6.& o o o o o o   o   o o 2 o 2       2 2 2 2 2 2 2 2 2 2 2 2 2 2 2 2 2 3 3 3 3 3 3 8 4.u.u.u.i.u.p.p.p.p.p.",
"p.p.p.p.p.p.u.u.u.u.u.-.o o o o o       o 2 6   2 o     2     2   2   2   2 2 2 2 2 2 2 3 2 3 3 3 3 3 3 &.i.u.u.u.u.p.p.p.p.p.p.",
"p.p.p.p.p.p.p.u.u.u.u.u.+.#   o   o   o o 2 o       o 2 4   2 2 2 2 2 2 2 2 2 3 2 2 2 3 3 2 3 3 3 3 3 O.u.u.u.u.u.p.p.p.p.p.p.p.",
"p.p.p.p.p.p.p.p.u.u.u.u.u.+.#   o   o   2   2       2 2   2 2   2 2 2 2 2 2 2 3 3 2 3 3 3 3 3 3 3 6 ..i.u.u.u.u.p.p.p.p.p.p.p.p.",
"p.p.p.p.p.p.p.p.u.u.u.u.u.u.=.7   #         o   2 2 2 2 2 2   2 2 2 2 2 2 2 3 2 3 3 2 3 3 3 3 3 8 &.i.y.u.u.u.u.p.p.p.p.p.p.p.p.",
"p.p.p.p.p.p.p.p.p.u.u.u.u.u.u.6.f # 2     2       2   2 2 2 4 2 2 2 2 2 3 3 3 3 2 3 3 3 3 3 3 t 4.i.i.i.u.i.u.p.p.p.p.p.p.p.p.p.",
"p.p.p.p.p.p.p.p.p.p.u.u.u.u.u.u.r.! 7   2   2 2 2   2 2   2 2 2 3 3 2 3 3 3 3 3 3 3 3 3 3 5 ~ r.i.i.i.i.i.u.p.p.p.p.p.p.p.p.p.p.",
"p.p.p.p.p.p.p.p.p.p.p.u.u.u.u.u.u.u.6.B   2 2 2 2 2 2 2 4 2 4 2   2 2 3 3 3 3 3 3 3 3 3 F 4.u.u.i.i.i.i.y.p.p.p.p.p.p.p.p.p.p.p.",
"p.p.p.p.p.p.p.p.p.p.p.p.p.u.u.u.u.u.u.u.<.L 7 6 4   4 2 2 2 2 2 3 3 3 3 3 3 3 3 3 5 H 3.u.u.u.u.u.u.u.p.p.p.p.p.p.p.p.p.p.p.p.p.",
"p.p.p.p.p.p.p.p.p.p.p.p.p.p.u.u.u.u.u.u.u.u.q.O.l 5 2 2 5 5 3 2   3 3 3 3 3 5 l o.9.u.u.u.u.u.u.u.u.p.p.p.p.p.p.p.p.p.p.p.p.p.p.",
"p.p.p.p.p.p.p.p.p.p.p.p.p.p.p.u.u.u.u.u.u.u.u.u.u.e.>.X.Q G k g t g G Q X.:.e.u.u.u.u.u.u.u.u.u.u.p.p.p.p.p.p.p.p.p.p.p.p.p.p.p.",
"p.p.p.p.p.p.p.p.p.p.p.p.p.p.p.p.p.u.u.u.u.u.u.u.u.u.u.u.u.u.i.i.u.u.u.u.u.u.u.u.u.u.u.u.u.u.u.p.p.p.p.p.p.p.p.p.p.p.p.p.p.p.p.p.",
"p.p.p.p.p.p.p.p.p.p.p.p.p.p.p.p.p.p.p.u.u.u.u.u.u.u.u.u.u.u.u.u.u.u.u.u.u.u.u.u.u.u.u.u.u.p.p.p.p.p.p.p.p.p.p.p.p.p.p.p.p.p.p.p.",
"p.p.p.p.p.p.p.p.p.p.p.p.p.p.p.p.p.p.p.p.p.p.u.u.u.u.u.u.u.u.i.u.u.u.u.u.u.u.u.u.u.u.p.p.p.p.p.p.p.p.p.p.p.p.p.p.p.p.p.p.p.p.p.p.",
"p.p.p.p.p.p.p.p.p.p.p.p.p.p.p.p.p.p.p.p.p.p.p.p.p.u.u.u.u.i.u.u.u.u.u.u.u.u.u.p.p.p.p.p.p.p.p.p.p.p.p.p.p.p.p.p.p.p.p.p.p.p.p.p.",
"p.p.p.p.p.p.p.p.p.p.p.p.p.p.p.p.p.p.p.p.p.p.p.p.p.p.p.p.p.p.p.p.p.p.p.p.p.p.p.p.p.p.p.p.p.p.p.p.p.p.p.p.p.p.p.p.p.p.p.p.p.p.p.p."
};
