/* XPM */
static char *_2936_8003a11cdb3b25865e67af607958b7c998af8954fefee2fee222f8284f5059f6[] = {
/* columns rows colors chars-per-pixel */
"32 32 101 2 ",
"   c #6E2E6D",
".  c #772E67",
"X  c #7D2D65",
"o  c #732E6B",
"O  c #792E68",
"+  c #6D306E",
"@  c #75306C",
"#  c #7B326A",
"$  c #6D3170",
"%  c #763772",
"&  c #743C77",
"*  c #7B3A71",
"=  c #753F78",
"-  c #794277",
";  c #842C5E",
":  c #882D5B",
">  c #822C62",
",  c #843365",
"<  c #8D3561",
"1  c #8D3B66",
"2  c #83396F",
"3  c #8A3C6C",
"4  c #823C71",
"5  c #8F416E",
"6  c #854273",
"7  c #8A4575",
"8  c #844679",
"9  c #844A7C",
"0  c #8A4F7E",
"q  c #94517A",
"w  c #7F4C81",
"e  c #955C85",
"r  c #99658C",
"t  c #9C688D",
"y  c #9D6C90",
"u  c #997299",
"i  c #9E7A9E",
"p  c #A66584",
"a  c #A46B8C",
"s  c #A56E91",
"d  c #A67595",
"f  c #AC7694",
"g  c #AF7C95",
"h  c #A67A9B",
"j  c #AF7E9B",
"k  c #B27A91",
"l  c #AF849F",
"z  c #B5859E",
"x  c #A682A3",
"c  c #AF84A1",
"v  c #AF8AA7",
"b  c #AD8DAB",
"n  c #B286A0",
"m  c #B38DA6",
"M  c #BA8FA6",
"N  c #B08CA8",
"B  c #B995AC",
"V  c #B798B0",
"C  c #BA9BB2",
"Z  c #C69DAD",
"A  c #C2A3B5",
"S  c #C8A5B5",
"D  c #CEABB7",
"F  c #C6AEBF",
"G  c #CBACBB",
"H  c #D0AFBB",
"J  c #CEB3BF",
"K  c #D1B0BC",
"L  c #C6AEC0",
"P  c #C5B0C2",
"I  c #CDB4C1",
"U  c #CFBDCA",
"Y  c #D5BBC4",
"T  c #D1BDCA",
"R  c #D3C1CC",
"E  c #DAC5CD",
"W  c #D0CECB",
"Q  c #DACCD4",
"!  c #D7D7D2",
"~  c #DAD6D1",
"^  c #DBDAD4",
"/  c #DEDBD8",
"(  c #E1CDD1",
")  c #E1D1D5",
"_  c #E1D7DB",
"`  c #E5DBDB",
"'  c #EADCDC",
"]  c #E3E2DC",
"[  c #E7DFE1",
"{  c #E9DFE0",
"}  c #E7E0E0",
"|  c #ECE3E2",
" . c #EEEDE6",
".. c #EFEDE8",
"X. c #F1EBE9",
"o. c #F5F4ED",
"O. c #F8F4EF",
"+. c #F9F7F1",
"@. c #FFFFF7",
"#. c #FFFFF8",
"$. c None",
/* pixels */
"$.$.$.$.$.$.$.$.$.$.$.$.$.$.W ^ ^ W $.$.$.$.$.$.$.$.$.$.$.$.$.$.",
"$.$.$.$.$.$.$.$.$.$.} #.#.#.#.#.#.@.@.#.#.} $.$.$.$.$.$.$.$.$.$.",
"$.$.$.$.$.$.$.$...#.#.#.#.X.Q U U Q X.@.#.#.#.X.$.$.$.$.$.$.$.$.",
"$.$.$.$.$.$.$.#.#.#.[ b w     o o   @ 9 v [ #.#.#.$.$.$.$.$.$.$.",
"$.$.$.$.$.^ #.#.X.i $     o       o @ @ @ @ h X.#.#./ $.$.$.$.$.",
"$.$.$.$.^ #.#.R =           o % % o o @ o o o 4 R #.#./ $.$.$.$.",
"$.$.$.$.#.#.P $             o V C @ o O O o O O O G @.@.$.$.$.$.",
"$.$.$.#.#.T $ $         o o 8 +.+.9 o O O O O O X # T @.#.$.$.$.",
"$.$.o.@.| &       o   o o o N @.#.U O O O O X O X O 2 | #.o.$.$.",
"$.$.#.@.u             o o o * X.#.#.r O O X O O O X O s #.#.$.$.",
"$. .@._           o o o o o o h #.#.[ O O X X X X X > X ) #...$.",
"$.@.@.x     o o o o o . h 8 O @ ) #.#.j O X X X X X X > j #.#.$.",
"$.#.@.- o     o o o . * X.I o X e #.#.X.2 > X X O X X > 3 @.#.$.",
"$.@.] +   o o o o o o A #.#.e O O L #.#.A X X > > > > > > [ #.$.",
"! @.T   o o o o o . 0 @.@.+.7 X X 4 O.#.+.e O > > > > > > Y @.~ ",
"..@.L @ o o o o . o R @.#.B O X X X M #.#.Q > > O > > > > G @...",
"..@.F   o o o . o y @.@.] # . X X X , { @.@.s > > > > > > D #.X.",
"! @.T @ . o . . # ' @.@.d X X X X X > s @.#.| , > > > > : Y #.~ ",
"$.@.` @ o . . . m @.@.X.d d f f d 7 X > E #.@.M ; > > > ; _ #.$.",
"$.@.+.* . . X - o.@.@.@.@.@.@.@.#.E > > q +.@.O.3 > : : 1 @.#.$.",
"$.@.@.h . . X G #.@.#.@.+.+.@.@.#.#.a > ; S #.@.K > > ; f @.@.$.",
"$...@.~ . . # l n n n n l z z z z n a > ; 3 z z z > : : ( @...$.",
"$.$.#.@.a X . X X X X X X : X X > ; ; ; ; ; ; ; : : > p @.#.$.$.",
"$.$.o.@.] # X X X X X ; X X : X ; > > ; ; ; ; ; : : < ' @.o.$.$.",
"$.$.$.#.#.I X X X X ; X ; X : : ; ; ; ; : > : : : > H @.#.$.$.$.",
"$.$.$.$.#.@.Z X X > X ; X ; X : ; ; ; ; > : : : : Z @.@.$.$.$.$.",
"$.$.$.$./ @.@.J , ; ; X : : X X ; ; : : : : : < K @.#.] $.$.$.$.",
"$.$.$.$.$.] #.@.] t ; ; : X : : ; : : : : : p ] #.#.] $.$.$.$.$.",
"$.$.$.$.$.$.$.#.@.@.) g 5 : ; : : : : 1 k ( @.@.#.$.$.$.$.$.$.$.",
"$.$.$.$.$.$.$.$.o.#.@.@.@.] J D D Y ` @.@.@.#.o.$.$.$.$.$.$.$.$.",
"$.$.$.$.$.$.$.$.$.$...@.@.@.@.@.@.@.@.@.@...$.$.$.$.$.$.$.$.$.$.",
"$.$.$.$.$.$.$.$.$.$.$.$.$.$.~ ....~ $.$.$.$.$.$.$.$.$.$.$.$.$.$."
};
